<svg xmlns="http://www.w3.org/2000/svg" xmlns:xlink="http://www.w3.org/1999/xlink" width="500" zoomAndPan="magnify" viewBox="0 0 375 374.999991" height="500" preserveAspectRatio="xMidYMid meet" version="1.0"><defs><g/><clipPath id="0c184f9e84"><path d="M 175.046875 108.742188 L 199.667969 108.742188 L 199.667969 266.257812 L 175.046875 266.257812 Z M 175.046875 108.742188 " clip-rule="nonzero"/></clipPath></defs><g fill="#000000" fill-opacity="1"><g transform="translate(126.165027, 263.714052)"><g><path d="M 4.375 0 L 4.375 -2.625 L 80.375 -140.171875 L 38.765625 -140.171875 C 33.941406 -140.171875 30.035156 -139.070312 27.046875 -136.875 C 24.054688 -134.6875 21.390625 -131.476562 19.046875 -127.25 L 8.984375 -109.5 L 6.796875 -109.5 L 8.328125 -144.546875 L 115.421875 -144.546875 L 115.421875 -141.921875 L 39.421875 -4.375 L 87.171875 -4.375 C 91.984375 -4.375 95.8125 -5.503906 98.65625 -7.765625 C 101.507812 -10.035156 104.101562 -13.285156 106.4375 -17.515625 L 115.859375 -35.046875 L 118.046875 -35.046875 L 116.515625 0 Z M 4.375 0 "/></g></g></g><g clip-path="url(#0c184f9e84)"><path fill="#ffffff" d="M 175.046875 108.742188 L 199.667969 108.742188 L 199.667969 266.292969 L 175.046875 266.292969 Z M 175.046875 108.742188 " fill-opacity="1" fill-rule="nonzero"/></g><g fill="#000000" fill-opacity="1"><g transform="translate(193.373826, 265.822517)"><g><path d="M 0 -0.34375 L -0.203125 -0.34375 L -10.875 -6.234375 L -10.875 -3 C -10.875 -2.632812 -10.785156 -2.332031 -10.609375 -2.09375 C -10.441406 -1.863281 -10.195312 -1.660156 -9.875 -1.484375 L -8.5 -0.703125 L -8.5 -0.53125 L -11.203125 -0.640625 L -11.203125 -8.953125 L -11 -8.953125 L -0.34375 -3.0625 L -0.34375 -6.765625 C -0.34375 -7.128906 -0.425781 -7.421875 -0.59375 -7.640625 C -0.769531 -7.867188 -1.023438 -8.070312 -1.359375 -8.25 L -2.71875 -8.984375 L -2.71875 -9.15625 L 0 -9.03125 Z M 0 -0.34375 "/></g></g></g><g fill="#000000" fill-opacity="1"><g transform="translate(193.373826, 252.57666)"><g><path d="M 0 -0.140625 L -0.171875 -0.140625 L -0.328125 -0.5625 C -0.410156 -0.789062 -0.515625 -0.96875 -0.640625 -1.09375 C -0.773438 -1.21875 -0.960938 -1.316406 -1.203125 -1.390625 L -11.25 -4.890625 L -11.25 -6.328125 L -1.140625 -9.78125 C -0.890625 -9.875 -0.695312 -9.976562 -0.5625 -10.09375 C -0.4375 -10.207031 -0.328125 -10.378906 -0.234375 -10.609375 L -0.171875 -10.8125 L 0 -10.8125 L 0 -6.5 L -0.171875 -6.5 L -0.25 -6.765625 C -0.34375 -6.992188 -0.472656 -7.132812 -0.640625 -7.1875 C -0.804688 -7.238281 -1 -7.234375 -1.21875 -7.171875 L -3.671875 -6.375 L -3.671875 -2.59375 L -1.28125 -1.78125 C -1.03125 -1.707031 -0.828125 -1.679688 -0.671875 -1.703125 C -0.523438 -1.734375 -0.410156 -1.867188 -0.328125 -2.109375 L -0.171875 -2.484375 L 0 -2.484375 Z M -4.015625 -2.71875 L -4.015625 -6.265625 L -9.296875 -4.546875 Z M -4.015625 -2.71875 "/></g></g></g><g fill="#000000" fill-opacity="1"><g transform="translate(193.373826, 237.802662)"><g><path d="M 0 -0.375 L -0.171875 -0.375 L -0.3125 -0.71875 C -0.382812 -0.9375 -0.488281 -1.082031 -0.625 -1.15625 C -0.757812 -1.238281 -0.9375 -1.28125 -1.15625 -1.28125 L -10.03125 -1.28125 C -10.257812 -1.28125 -10.441406 -1.238281 -10.578125 -1.15625 C -10.710938 -1.082031 -10.820312 -0.9375 -10.90625 -0.71875 L -11.046875 -0.375 L -11.203125 -0.375 L -11.203125 -4.6875 L -11.046875 -4.6875 L -10.921875 -4.40625 C -10.835938 -4.1875 -10.726562 -4.035156 -10.59375 -3.953125 C -10.46875 -3.878906 -10.296875 -3.84375 -10.078125 -3.84375 L -5.9375 -3.84375 L -5.9375 -7.890625 L -10.078125 -7.890625 C -10.296875 -7.890625 -10.46875 -7.851562 -10.59375 -7.78125 C -10.726562 -7.707031 -10.835938 -7.5625 -10.921875 -7.34375 L -11.046875 -7.03125 L -11.203125 -7.03125 L -11.203125 -11.359375 L -11.046875 -11.359375 L -10.90625 -11.015625 C -10.820312 -10.804688 -10.710938 -10.660156 -10.578125 -10.578125 C -10.441406 -10.503906 -10.257812 -10.46875 -10.03125 -10.46875 L -1.15625 -10.46875 C -0.9375 -10.46875 -0.757812 -10.503906 -0.625 -10.578125 C -0.488281 -10.660156 -0.382812 -10.804688 -0.3125 -11.015625 L -0.171875 -11.359375 L 0 -11.359375 L 0 -7.03125 L -0.171875 -7.03125 L -0.265625 -7.34375 C -0.359375 -7.5625 -0.46875 -7.707031 -0.59375 -7.78125 C -0.726562 -7.851562 -0.910156 -7.890625 -1.140625 -7.890625 L -5.609375 -7.890625 L -5.609375 -3.84375 L -1.140625 -3.84375 C -0.722656 -3.84375 -0.429688 -4.03125 -0.265625 -4.40625 L -0.171875 -4.6875 L 0 -4.6875 Z M 0 -0.375 "/></g></g></g><g fill="#000000" fill-opacity="1"><g transform="translate(193.373826, 222.332503)"><g><path d="M 0 -0.375 L -0.171875 -0.375 L -0.28125 -0.734375 C -0.363281 -0.953125 -0.46875 -1.097656 -0.59375 -1.171875 C -0.726562 -1.242188 -0.914062 -1.28125 -1.15625 -1.28125 L -10.03125 -1.28125 C -10.257812 -1.28125 -10.4375 -1.25 -10.5625 -1.1875 C -10.695312 -1.125 -10.804688 -0.984375 -10.890625 -0.765625 L -11.046875 -0.375 L -11.203125 -0.375 L -11.203125 -5.234375 C -11.203125 -6.566406 -10.953125 -7.585938 -10.453125 -8.296875 C -9.953125 -9.015625 -9.253906 -9.375 -8.359375 -9.375 C -7.859375 -9.375 -7.359375 -9.1875 -6.859375 -8.8125 C -6.359375 -8.4375 -5.972656 -7.847656 -5.703125 -7.046875 L -1.015625 -9.40625 C -0.828125 -9.507812 -0.671875 -9.625 -0.546875 -9.75 C -0.429688 -9.882812 -0.328125 -10.0625 -0.234375 -10.28125 L -0.15625 -10.5 L 0 -10.5 L 0 -7.453125 L -5.34375 -4.9375 L -5.34375 -3.78125 L -1.15625 -3.78125 C -0.9375 -3.78125 -0.757812 -3.8125 -0.625 -3.875 C -0.488281 -3.945312 -0.390625 -4.09375 -0.328125 -4.3125 L -0.171875 -4.71875 L 0 -4.71875 Z M -5.6875 -3.78125 L -5.6875 -4.609375 C -5.6875 -5.421875 -5.90625 -6.003906 -6.34375 -6.359375 C -6.78125 -6.722656 -7.425781 -6.90625 -8.28125 -6.90625 C -9.15625 -6.90625 -9.804688 -6.734375 -10.234375 -6.390625 C -10.660156 -6.054688 -10.875 -5.488281 -10.875 -4.6875 L -10.875 -3.78125 Z M -5.6875 -3.78125 "/></g></g></g><g fill="#000000" fill-opacity="1"><g transform="translate(193.373826, 207.93205)"><g><path d="M 0 -0.140625 L -0.171875 -0.140625 L -0.328125 -0.5625 C -0.410156 -0.789062 -0.515625 -0.96875 -0.640625 -1.09375 C -0.773438 -1.21875 -0.960938 -1.316406 -1.203125 -1.390625 L -11.25 -4.890625 L -11.25 -6.328125 L -1.140625 -9.78125 C -0.890625 -9.875 -0.695312 -9.976562 -0.5625 -10.09375 C -0.4375 -10.207031 -0.328125 -10.378906 -0.234375 -10.609375 L -0.171875 -10.8125 L 0 -10.8125 L 0 -6.5 L -0.171875 -6.5 L -0.25 -6.765625 C -0.34375 -6.992188 -0.472656 -7.132812 -0.640625 -7.1875 C -0.804688 -7.238281 -1 -7.234375 -1.21875 -7.171875 L -3.671875 -6.375 L -3.671875 -2.59375 L -1.28125 -1.78125 C -1.03125 -1.707031 -0.828125 -1.679688 -0.671875 -1.703125 C -0.523438 -1.734375 -0.410156 -1.867188 -0.328125 -2.109375 L -0.171875 -2.484375 L 0 -2.484375 Z M -4.015625 -2.71875 L -4.015625 -6.265625 L -9.296875 -4.546875 Z M -4.015625 -2.71875 "/></g></g></g><g fill="#000000" fill-opacity="1"><g transform="translate(193.373826, 193.158049)"><g/></g></g><g fill="#000000" fill-opacity="1"><g transform="translate(193.373826, 185.719137)"><g><path d="M 0 -0.140625 L -0.171875 -0.140625 L -0.328125 -0.5625 C -0.410156 -0.789062 -0.515625 -0.96875 -0.640625 -1.09375 C -0.773438 -1.21875 -0.960938 -1.316406 -1.203125 -1.390625 L -11.25 -4.890625 L -11.25 -6.328125 L -1.140625 -9.78125 C -0.890625 -9.875 -0.695312 -9.976562 -0.5625 -10.09375 C -0.4375 -10.207031 -0.328125 -10.378906 -0.234375 -10.609375 L -0.171875 -10.8125 L 0 -10.8125 L 0 -6.5 L -0.171875 -6.5 L -0.25 -6.765625 C -0.34375 -6.992188 -0.472656 -7.132812 -0.640625 -7.1875 C -0.804688 -7.238281 -1 -7.234375 -1.21875 -7.171875 L -3.671875 -6.375 L -3.671875 -2.59375 L -1.28125 -1.78125 C -1.03125 -1.707031 -0.828125 -1.679688 -0.671875 -1.703125 C -0.523438 -1.734375 -0.410156 -1.867188 -0.328125 -2.109375 L -0.171875 -2.484375 L 0 -2.484375 Z M -4.015625 -2.71875 L -4.015625 -6.265625 L -9.296875 -4.546875 Z M -4.015625 -2.71875 "/></g></g></g><g fill="#000000" fill-opacity="1"><g transform="translate(193.373826, 170.945136)"><g><path d="M 0.3125 -4.03125 C 0.3125 -3.40625 0.234375 -2.769531 0.078125 -2.125 C -0.078125 -1.476562 -0.28125 -0.941406 -0.53125 -0.515625 L -2.84375 -0.59375 L -2.84375 -0.765625 L -1.734375 -1.296875 C -1.410156 -1.453125 -1.128906 -1.617188 -0.890625 -1.796875 C -0.648438 -1.984375 -0.460938 -2.234375 -0.328125 -2.546875 C -0.210938 -2.773438 -0.132812 -2.992188 -0.09375 -3.203125 C -0.0507812 -3.410156 -0.03125 -3.644531 -0.03125 -3.90625 C -0.03125 -4.59375 -0.21875 -5.132812 -0.59375 -5.53125 C -0.96875 -5.9375 -1.445312 -6.140625 -2.03125 -6.140625 C -2.59375 -6.140625 -3.023438 -6.003906 -3.328125 -5.734375 C -3.640625 -5.460938 -3.945312 -5.03125 -4.25 -4.4375 L -4.546875 -3.734375 C -4.984375 -2.765625 -5.476562 -2.003906 -6.03125 -1.453125 C -6.59375 -0.898438 -7.335938 -0.625 -8.265625 -0.625 C -8.941406 -0.625 -9.519531 -0.796875 -10 -1.140625 C -10.488281 -1.492188 -10.863281 -1.976562 -11.125 -2.59375 C -11.382812 -3.207031 -11.515625 -3.925781 -11.515625 -4.75 C -11.515625 -5.351562 -11.4375 -5.921875 -11.28125 -6.453125 C -11.125 -6.992188 -10.90625 -7.460938 -10.625 -7.859375 L -8.59375 -7.765625 L -8.59375 -7.59375 L -9.875 -6.890625 C -10.269531 -6.703125 -10.546875 -6.507812 -10.703125 -6.3125 C -10.867188 -6.125 -10.988281 -5.90625 -11.0625 -5.65625 C -11.101562 -5.507812 -11.128906 -5.375 -11.140625 -5.25 C -11.160156 -5.125 -11.171875 -4.960938 -11.171875 -4.765625 C -11.171875 -4.191406 -11.003906 -3.707031 -10.671875 -3.3125 C -10.335938 -2.914062 -9.890625 -2.71875 -9.328125 -2.71875 C -8.742188 -2.71875 -8.28125 -2.867188 -7.9375 -3.171875 C -7.59375 -3.484375 -7.285156 -3.929688 -7.015625 -4.515625 L -6.671875 -5.296875 C -6.203125 -6.378906 -5.695312 -7.160156 -5.15625 -7.640625 C -4.613281 -8.117188 -3.921875 -8.359375 -3.078125 -8.359375 C -2.078125 -8.359375 -1.257812 -7.976562 -0.625 -7.21875 C 0 -6.46875 0.3125 -5.40625 0.3125 -4.03125 Z M 0.3125 -4.03125 "/></g></g></g><g fill="#000000" fill-opacity="1"><g transform="translate(193.373826, 158.361469)"><g><path d="M 0.3125 -6.1875 C 0.3125 -5.03125 0.0703125 -4.007812 -0.40625 -3.125 C -0.894531 -2.25 -1.582031 -1.566406 -2.46875 -1.078125 C -3.351562 -0.585938 -4.40625 -0.34375 -5.625 -0.34375 C -6.800781 -0.34375 -7.828125 -0.582031 -8.703125 -1.0625 C -9.585938 -1.550781 -10.273438 -2.253906 -10.765625 -3.171875 C -11.265625 -4.097656 -11.515625 -5.21875 -11.515625 -6.53125 C -11.515625 -7.132812 -11.445312 -7.691406 -11.3125 -8.203125 C -11.175781 -8.722656 -10.976562 -9.21875 -10.71875 -9.6875 L -8.34375 -9.75 L -8.34375 -9.578125 L -10.109375 -8.625 C -10.390625 -8.476562 -10.59375 -8.34375 -10.71875 -8.21875 C -10.84375 -8.09375 -10.9375 -7.9375 -11 -7.75 C -11.0625 -7.5625 -11.101562 -7.390625 -11.125 -7.234375 C -11.15625 -7.085938 -11.171875 -6.890625 -11.171875 -6.640625 C -11.171875 -5.941406 -10.984375 -5.320312 -10.609375 -4.78125 C -10.242188 -4.238281 -9.648438 -3.820312 -8.828125 -3.53125 C -8.015625 -3.238281 -6.945312 -3.09375 -5.625 -3.09375 C -4.3125 -3.09375 -3.238281 -3.226562 -2.40625 -3.5 C -1.582031 -3.78125 -0.976562 -4.175781 -0.59375 -4.6875 C -0.21875 -5.195312 -0.03125 -5.785156 -0.03125 -6.453125 C -0.03125 -6.554688 -0.0351562 -6.65625 -0.046875 -6.75 C -0.0664062 -6.84375 -0.09375 -6.9375 -0.125 -7.03125 C -0.15625 -7.25 -0.242188 -7.390625 -0.390625 -7.453125 C -0.535156 -7.523438 -0.710938 -7.5625 -0.921875 -7.5625 L -4.28125 -7.5625 C -4.71875 -7.5625 -4.988281 -7.332031 -5.09375 -6.875 L -5.296875 -6.09375 L -5.46875 -6.09375 L -5.46875 -10.890625 L -5.296875 -10.890625 L -5.234375 -10.65625 C -5.097656 -10.21875 -4.8125 -10 -4.375 -10 L -0.703125 -10 C -0.367188 -9.414062 -0.117188 -8.816406 0.046875 -8.203125 C 0.222656 -7.597656 0.3125 -6.925781 0.3125 -6.1875 Z M 0.3125 -6.1875 "/></g></g></g><g fill="#000000" fill-opacity="1"><g transform="translate(193.373826, 143.485583)"><g><path d="M 0 -0.140625 L -0.171875 -0.140625 L -0.328125 -0.5625 C -0.410156 -0.789062 -0.515625 -0.96875 -0.640625 -1.09375 C -0.773438 -1.21875 -0.960938 -1.316406 -1.203125 -1.390625 L -11.25 -4.890625 L -11.25 -6.328125 L -1.140625 -9.78125 C -0.890625 -9.875 -0.695312 -9.976562 -0.5625 -10.09375 C -0.4375 -10.207031 -0.328125 -10.378906 -0.234375 -10.609375 L -0.171875 -10.8125 L 0 -10.8125 L 0 -6.5 L -0.171875 -6.5 L -0.25 -6.765625 C -0.34375 -6.992188 -0.472656 -7.132812 -0.640625 -7.1875 C -0.804688 -7.238281 -1 -7.234375 -1.21875 -7.171875 L -3.671875 -6.375 L -3.671875 -2.59375 L -1.28125 -1.78125 C -1.03125 -1.707031 -0.828125 -1.679688 -0.671875 -1.703125 C -0.523438 -1.734375 -0.410156 -1.867188 -0.328125 -2.109375 L -0.171875 -2.484375 L 0 -2.484375 Z M -4.015625 -2.71875 L -4.015625 -6.265625 L -9.296875 -4.546875 Z M -4.015625 -2.71875 "/></g></g></g><g fill="#000000" fill-opacity="1"><g transform="translate(193.373826, 128.711582)"><g><path d="M 0 -0.375 L -0.171875 -0.375 L -0.28125 -0.734375 C -0.363281 -0.953125 -0.46875 -1.097656 -0.59375 -1.171875 C -0.726562 -1.242188 -0.914062 -1.28125 -1.15625 -1.28125 L -10.03125 -1.28125 C -10.257812 -1.28125 -10.4375 -1.25 -10.5625 -1.1875 C -10.695312 -1.125 -10.804688 -0.984375 -10.890625 -0.765625 L -11.046875 -0.375 L -11.203125 -0.375 L -11.203125 -5.234375 C -11.203125 -6.566406 -10.953125 -7.585938 -10.453125 -8.296875 C -9.953125 -9.015625 -9.253906 -9.375 -8.359375 -9.375 C -7.859375 -9.375 -7.359375 -9.1875 -6.859375 -8.8125 C -6.359375 -8.4375 -5.972656 -7.847656 -5.703125 -7.046875 L -1.015625 -9.40625 C -0.828125 -9.507812 -0.671875 -9.625 -0.546875 -9.75 C -0.429688 -9.882812 -0.328125 -10.0625 -0.234375 -10.28125 L -0.15625 -10.5 L 0 -10.5 L 0 -7.453125 L -5.34375 -4.9375 L -5.34375 -3.78125 L -1.15625 -3.78125 C -0.9375 -3.78125 -0.757812 -3.8125 -0.625 -3.875 C -0.488281 -3.945312 -0.390625 -4.09375 -0.328125 -4.3125 L -0.171875 -4.71875 L 0 -4.71875 Z M -5.6875 -3.78125 L -5.6875 -4.609375 C -5.6875 -5.421875 -5.90625 -6.003906 -6.34375 -6.359375 C -6.78125 -6.722656 -7.425781 -6.90625 -8.28125 -6.90625 C -9.15625 -6.90625 -9.804688 -6.734375 -10.234375 -6.390625 C -10.660156 -6.054688 -10.875 -5.488281 -10.875 -4.6875 L -10.875 -3.78125 Z M -5.6875 -3.78125 "/></g></g></g><g fill="#000000" fill-opacity="1"><g transform="translate(193.373826, 114.311127)"><g><path d="M 0 -0.375 L -0.171875 -0.375 L -0.3125 -0.71875 C -0.382812 -0.9375 -0.488281 -1.082031 -0.625 -1.15625 C -0.757812 -1.238281 -0.941406 -1.28125 -1.171875 -1.28125 L -10.03125 -1.28125 C -10.257812 -1.28125 -10.441406 -1.242188 -10.578125 -1.171875 C -10.710938 -1.097656 -10.820312 -0.945312 -10.90625 -0.71875 L -11.046875 -0.375 L -11.203125 -0.375 L -11.203125 -4.734375 L -11.046875 -4.734375 L -10.90625 -4.40625 C -10.820312 -4.175781 -10.710938 -4.023438 -10.578125 -3.953125 C -10.441406 -3.878906 -10.257812 -3.84375 -10.03125 -3.84375 L -1.171875 -3.84375 C -0.941406 -3.84375 -0.757812 -3.878906 -0.625 -3.953125 C -0.5 -4.023438 -0.394531 -4.175781 -0.3125 -4.40625 L -0.171875 -4.734375 L 0 -4.734375 Z M 0 -0.375 "/></g></g></g><g fill="#000000" fill-opacity="1"><g transform="translate(193.373826, 105.453074)"><g/></g></g></svg>